PathFileType	4	(X/Y/Z)	Patient4_TMGait_0pt5_01_left_08.trc.trc
DataRate	CameraRate	NumFrames	NumMarkers	Units	OrigDataRate	OrigDataStartFrame	OrigNumFrames
75.268817204301	75.268817204301	4	33	mm	75.268817204301	71	       141
Frame#	Time	L.ASIS			Sacral			L.Shoulder			Chest			R.Shoulder			Neck			R.ASIS			R.Thigh.Superior			R.Thigh.Lateral			R.Thigh.Inferior			R.Patella			L.Thigh.Superior			L.Thigh.Lateral			L.Thigh.Inferior			L.Patella			L.Shank.Superior			L.Shank.Lateral			L.Shank.Inferior			R.Shank.Superior			R.Shank.Lateral			R.Shank.Inferior			R.Heel			R.Midfoot.Superior			R.Midfoot.Lateral			R.Toe			L.Heel			L.Midfoot.Lateral			L.Midfoot.Superior			L.Toe			L.Elbow			L.Wrist			R.Elbow			R.Wrist			
		X1	Y1	Z1	X2	Y2	Z2	X3	Y3	Z3	X4	Y4	Z4	X5	Y5	Z5	X6	Y6	Z6	X7	Y7	Z7	X8	Y8	Z8	X9	Y9	Z9	X10	Y10	Z10	X11	Y11	Z11	X12	Y12	Z12	X13	Y13	Z13	X14	Y14	Z14	X15	Y15	Z15	X16	Y16	Z16	X17	Y17	Z17	X18	Y18	Z18	X19	Y19	Z19	X20	Y20	Z20	X21	Y21	Z21	X22	Y22	Z22	X23	Y23	Z23	X24	Y24	Z24	X25	Y25	Z25	X26	Y26	Z26	X27	Y27	Z27	X28	Y28	Z28	X29	Y29	Z29	X30	Y30	Z30	X31	Y31	Z31	X32	Y32	Z32	X33	Y33	Z33	

71	11.670000000000	716.382910050823	960.480670870398	288.309047457917	488.625333821018	999.127477338198	424.802450037313	678.455629224974	1436.180826269633	268.112801828678	761.442260893479	1363.884844047428	439.261709779361	654.553075111574	1433.549588027748	603.323666297348	661.095736730907	1493.392258464323	418.563738062660	704.117635453476	940.759916842434	562.885469124299	780.659749637862	764.565900498055	536.513190075092	731.784238980092	644.215298691834	606.478353033797	821.649232447242	605.842365220418	528.216130179547	855.427774384144	523.612750941559	543.775847103015	730.097208168145	733.667175282893	320.166239744596	625.014341166599	633.680400662092	251.682113490579	683.528717859908	543.874231831519	321.694559836974	669.744764462097	475.620674393888	332.375094389695	638.663140985306	407.534407829670	322.376353535806	543.288486885740	301.815544872097	266.047530427087	574.947382779428	188.174018491623	342.570431019092	841.604525057154	435.673917882366	551.785972303231	792.153306642979	320.729414111413	614.762969110446	861.850752350686	236.391605828054	561.759546880613	772.362471133666	45.086240585381	532.679457188823	931.202924183433	128.288819185997	575.732158099026	855.997185040759	48.134377887303	607.639795302633	1056.592612620945	96.914025398922	602.448607633988	431.518507015593	38.428266396791	375.436053344626	509.354504139006	34.779622919331	298.916928772269	591.676529890901	95.037561495706	330.179148485589	720.980359074252	41.148662042872	308.037318838873	686.491903558926	1097.259761015436	114.573335580117	874.870569217660	924.030503433939	169.426941185597	551.561492043646	1097.905025902131	698.232227315903	608.547968271135	841.992062468749	702.810783013276	
72	11.683285714286	717.698369700718	959.560695398282	289.947703542318	489.900091283515	998.080665891399	426.242621662933	679.232382265995	1435.343069503825	270.189907710657	762.076754498509	1362.934479231607	441.289026204098	655.043553372109	1432.453211243121	605.348796403964	661.427754502610	1492.380577426145	420.605968267517	705.195075738642	939.504239550558	564.606780377942	780.303608493519	762.087034270357	539.122270749590	729.447341461153	641.692835473733	608.187150866669	819.840540305356	603.232463163147	530.636748809322	852.563602442465	521.850093131617	545.149160358806	728.802245860928	732.138270037412	321.112281182490	622.141647830886	633.445505190386	252.494822693446	679.512863584627	542.897177393449	322.266170936690	665.089375070063	474.793151554607	332.768706104593	633.672792264525	407.101868326557	322.708296215519	537.509404482485	301.993553328665	266.419695550069	568.781234486108	188.025000042964	342.691218608737	840.259800298180	433.967565850598	553.143770834142	792.323697263711	318.247183741708	615.760215076345	863.557330696093	235.021214916135	562.814126842655	776.672272119631	43.379779855791	533.234020826314	934.971416817355	127.176813730755	576.513559549552	860.260758658762	46.618645819944	608.162325947376	1060.488601615036	96.270086537745	602.891593167853	424.857778693527	38.481338064263	375.497819520816	502.664751494103	34.856112026139	299.004113426415	585.023985852246	95.032707586906	330.215320607464	714.239629128781	40.963132390127	308.033846894077	689.620729772145	1096.578460014935	116.757670610547	880.401729647095	926.806101663473	173.497315287412	554.657586312693	1095.778557801481	700.049837513696	618.269637096982	841.467157748691	703.620086630749	
73	11.696571428571	719.197995574631	958.532339628202	291.714447234973	491.412749232447	996.858474732106	427.987584096317	679.894745214551	1434.389453161735	272.460637305733	762.734468283721	1361.959219731850	443.488485126450	655.547063910186	1431.238612351261	607.590349459897	661.648756816460	1491.255512863619	422.846410556973	706.680796244872	938.105648139450	566.420445159532	780.684498261159	759.721292822856	541.561653260046	727.977430956181	639.187532249798	609.627738153705	818.857103414052	600.778828071725	532.734410064016	850.354619282309	519.847920279517	546.244867518863	727.796895674157	730.528822636312	322.090104352666	619.513130260733	633.132371205643	253.458518137293	675.812100657057	541.844115127437	322.957385875956	660.756660984048	473.807124145825	333.314282337972	628.927822935348	406.557478155629	323.165685502836	531.854044835559	302.162311705306	266.881691450411	562.650083596474	187.823313946329	342.873120901205	838.992176567342	431.827136221324	554.227783982295	791.630857934237	315.747971783280	616.387967498901	863.667536043839	233.134030879316	563.507860876424	777.723524608641	42.282994213057	533.381091926241	936.133299839455	125.073307677805	576.797314376548	861.178445841575	45.072365561842	608.369382689098	1061.444857624187	93.453767477786	603.126209806070	418.176587871276	38.477485995417	375.563994700353	495.968844195184	34.908475549418	299.102569748550	578.347632904406	95.037148991978	330.263591071148	707.504456668707	40.786482180135	308.013583498655	692.435660714447	1095.784295768850	119.111891153514	885.462781619093	929.294640760202	177.431154179880	557.915497194865	1093.574697973015	702.199389147765	628.367731757226	841.153794287136	704.742014999655	
74	11.709857142857	720.855976711239	957.409367567874	293.595796850549	493.128732151366	995.486903688197	430.023535969692	680.446460998915	1433.339293130058	274.928517515182	763.427421480210	1360.965693363210	445.861278145507	656.082633491876	1429.908620247899	610.055029375628	661.793501034254	1490.038504736633	425.296153780954	708.545922254739	936.595244494541	568.314591000357	781.800239104957	757.496315470766	543.785927809451	727.381761847574	636.764881502910	610.788296453355	818.686796224918	598.524729863623	534.478405027223	848.823864034528	517.665536361375	547.046441293806	727.142929534959	728.868965509979	323.119104321591	617.245210364893	632.718392922062	254.600972222827	672.585686368045	540.707439842970	323.799623300986	656.930174159666	472.626113940320	334.035903719090	624.561239736449	405.861249702975	323.780393680699	526.423000574283	302.325597406483	267.454455150902	556.598582226437	187.557208015641	343.124872312726	837.890918551375	429.329349834502	555.035242564320	790.305866281152	313.234333892488	616.713359634801	862.455006290825	230.762913005243	563.853458530684	775.921089081288	41.630205234264	533.217882868608	935.035364176675	122.098152660250	576.594275284734	859.202701764253	43.472496077335	608.327541352692	1059.898049866780	88.769433204178	603.112257295868	411.473754265587	38.439353815769	375.627757099542	489.272721529342	34.936678731499	299.208856193426	571.665838994582	95.048100743000	330.317686802918	700.793793664095	40.614869644458	307.969749151728	694.911436965637	1094.879004670367	121.633356984084	890.026393222581	931.455720141300	181.195586363642	561.327008609427	1091.306119874616	704.677567727198	638.751126131268	841.050170915253	706.179643982595	
